<svg width="37" height="37" viewBox="0 0 37 37" fill="none" xmlns="http://www.w3.org/2000/svg">
<path d="M6.16699 27.75C6.16699 26.1145 6.81669 24.546 7.97317 23.3895C9.12964 22.233 10.6982 21.5833 12.3337 21.5833H24.667C26.3025 21.5833 27.871 22.233 29.0275 23.3895C30.184 24.546 30.8337 26.1145 30.8337 27.75C30.8337 28.5677 30.5088 29.352 29.9306 29.9302C29.3523 30.5085 28.5681 30.8333 27.7503 30.8333H9.25033C8.43257 30.8333 7.64832 30.5085 7.07008 29.9302C6.49184 29.352 6.16699 28.5677 6.16699 27.75Z" stroke="white" stroke-width="2" stroke-linejoin="round"/>
<path d="M18.5 15.4167C21.0543 15.4167 23.125 13.346 23.125 10.7917C23.125 8.23734 21.0543 6.16666 18.5 6.16666C15.9457 6.16666 13.875 8.23734 13.875 10.7917C13.875 13.346 15.9457 15.4167 18.5 15.4167Z" stroke="white" stroke-width="2"/>
</svg>
