<svg width="56" height="54" viewBox="0 0 56 54" fill="none" xmlns="http://www.w3.org/2000/svg">
<path d="M33.9434 0C46.5521 2.66618 55.9999 13.637 56 26.7686C55.9999 39.2009 47.5314 49.6967 35.9297 53.042C35.8281 52.8492 35.684 52.6727 35.4912 52.5312H35.4902L34.0986 51.4717L33.1836 50.7266L32.3193 49.8809C32.2998 49.8617 32.2818 49.8404 32.2656 49.8184L31.541 48.8271H31.542L30.6514 47.5215C30.6354 47.4981 30.6211 47.473 30.6094 47.4473L30.0195 46.1484L29.5527 45.083L28.6289 42.8252L28.1934 41.2578C28.1854 41.2292 28.1795 41.1995 28.1768 41.1699L28.0312 39.6074V35.6436L28.1846 32.6445L28.6445 30.0928L29.2686 27.3447L29.8916 24.75L29.8926 24.751L30.5107 22.3271L31.1279 20.6699L31.1328 20.6572L31.1885 20.4932C31.4269 19.7936 30.819 19.0984 30.0938 19.2402L30.0742 19.2432L30.0557 19.249L28.9609 19.5547L28.9502 19.5576L28.9404 19.5615L28.0742 19.8438C28.0501 19.8516 28.0251 19.8572 28 19.8613L27.2178 19.9893C27.1912 19.9936 27.1636 19.9951 27.1367 19.9951H22.9971C22.9445 19.9951 22.8918 19.987 22.8418 19.9707L21.585 19.5615L21.5723 19.5566L21.5596 19.5537L19.9824 19.1328C19.9349 19.1201 19.8894 19.1001 19.8477 19.0742L18.2529 18.082L16.8545 17.1699C16.1266 16.6184 15.0681 16.8792 14.6865 17.7188L14.5615 17.9932L14.5566 18.0049L14.5518 18.0156L13.457 20.7695L13.4531 20.7803L12.8271 22.4639L12.8154 22.4961L12.8076 22.5312L12.3389 24.6729L12.334 24.6943L12.3311 24.7168L12.0176 27.165L12.0156 27.1826L12.0146 27.2002L11.8584 29.9541V29.9619C11.8325 30.5941 11.7925 31.5677 11.7598 32.415L11.7012 34.1143V40.1621C11.7012 40.2339 11.7062 40.3059 11.7168 40.3779C11.7975 40.9276 11.921 41.7419 12.04 42.4639C12.0995 42.8244 12.1581 43.1652 12.21 43.4395C12.2589 43.6981 12.3092 43.9383 12.3535 44.0684C12.4217 44.2689 12.5325 44.734 12.6533 45.2461C12.7669 45.7277 12.8913 46.2578 12.9795 46.5166C13.0479 46.7177 13.119 47.0293 13.2012 47.3711C13.2403 47.5339 13.2819 47.7013 13.3242 47.8486C13.3643 47.9881 13.414 48.1432 13.4766 48.2656C13.555 48.4192 13.827 48.9517 14.0791 49.4639C14.2054 49.7205 14.3258 49.9687 14.4131 50.1602C14.457 50.2564 14.4903 50.3338 14.5117 50.3877C14.5181 50.4039 14.5215 50.4167 14.5244 50.4248C14.5357 50.4895 14.5554 50.5364 14.5596 50.5469C14.5733 50.5812 14.5902 50.6133 14.6035 50.6387C14.6308 50.6908 14.6657 50.751 14.7031 50.8115C14.7227 50.8432 14.7455 50.8762 14.7686 50.9121C5.97756 46.2924 5.20155e-05 37.2136 0 26.7686C0.000121533 14.2319 8.61062 3.6621 20.3623 0.410156C18.6049 2.15104 17.5196 4.54271 17.5195 7.18262C17.5195 12.5065 21.9315 16.8221 27.374 16.8223C32.8166 16.8222 37.2295 12.5066 37.2295 7.18262C37.2294 4.32806 35.9592 1.76505 33.9434 0Z" fill="url(#paint0_linear_62_78)"/>
<defs>
<linearGradient id="paint0_linear_62_78" x1="17.8324" y1="0.916864" x2="28.3012" y2="53.2742" gradientUnits="userSpaceOnUse">
<stop offset="0.274038" stop-color="#E84E0F"/>
<stop offset="1" stop-color="#E41C1E"/>
</linearGradient>
</defs>
</svg>
